# Blender v2.93.5 OBJ File: ''
# www.blender.org
o Sphere
v 1.595675 0.000000 -0.768437
v -0.394100 -0.000000 -1.726662
v 1.595675 -0.294068 -0.709943
v 1.104241 -0.529892 -1.279273
v 0.394099 -0.660765 -1.595227
v -0.394099 -0.660765 -1.595227
v 1.595675 -0.543367 -0.543367
v 1.104242 -0.979113 -0.979113
v 0.394099 -1.220934 -1.220934
v -0.394099 -1.220935 -1.220934
v 1.595675 -0.709943 -0.294068
v 1.104242 -1.279273 -0.529892
v 0.394100 -1.595227 -0.660765
v -0.394099 -1.595228 -0.660764
v 1.595675 -0.768437 -0.000000
v 1.104242 -1.384675 0.000000
v 0.394100 -1.726662 0.000000
v -0.394099 -1.726662 0.000000
v 1.595675 -0.709943 0.294068
v 1.104242 -1.279273 0.529893
v 0.394100 -1.595227 0.660765
v -0.394099 -1.595228 0.660765
v 1.595675 -0.543367 0.543367
v 1.104242 -0.979113 0.979114
v 0.394100 -1.220934 1.220935
v -0.394099 -1.220934 1.220935
v 1.595675 -0.294068 0.709943
v 1.104242 -0.529892 1.279274
v 0.394100 -0.660765 1.595228
v -0.394099 -0.660765 1.595228
v 1.771066 0.000000 0.000000
v 1.595675 0.000000 0.768437
v 1.104242 0.000000 1.384676
v 0.394100 0.000000 1.726662
v -0.394099 0.000000 1.726662
v 1.595675 0.294069 0.709943
v 1.104242 0.529893 1.279273
v 0.394099 0.660765 1.595227
v -0.394099 0.660765 1.595227
v 1.595675 0.543367 0.543367
v 1.104242 0.979114 0.979113
v 0.394099 1.220935 1.220934
v -0.394099 1.220934 1.220934
v 1.595675 0.709944 0.294068
v 1.104241 1.279274 0.529892
v 0.394099 1.595228 0.660764
v -0.394100 1.595227 0.660764
v 1.595675 0.768437 -0.000000
v 1.104241 1.384676 -0.000000
v 0.394099 1.726662 -0.000001
v -0.394100 1.726661 -0.000000
v 1.595675 0.709943 -0.294068
v 1.104241 1.279273 -0.529893
v 0.394099 1.595227 -0.660765
v -0.394100 1.595227 -0.660765
v 1.595675 0.543367 -0.543367
v 1.104241 0.979113 -0.979114
v 0.394099 1.220934 -1.220934
v -0.394100 1.220933 -1.220934
v 1.595675 0.294068 -0.709943
v 1.104241 0.529892 -1.279273
v 0.394099 0.660764 -1.595227
v -0.394100 0.660764 -1.595227
v 1.104241 -0.000000 -1.384675
v 0.394099 -0.000001 -1.726661
v -1.565301 -0.000000 -1.482846
v -1.565301 -0.567461 -1.369971
v -1.565301 -1.048531 -1.048530
v -1.565301 -1.369972 -0.567460
v -1.565301 -1.482847 0.000001
v -1.565301 -1.369972 0.567461
v -1.565301 -1.048531 1.048531
v -1.565301 -0.567461 1.369972
v -1.565301 0.000000 1.482847
v -1.565301 0.567461 1.369972
v -1.565301 1.048531 1.048531
v -1.565301 1.369971 0.567461
v -1.565301 1.482846 -0.000000
v -1.565301 1.369971 -0.567461
v -1.565301 1.048530 -1.048531
v -1.565301 0.567460 -1.369971
vt 0.750000 0.750000
vt 0.750000 0.500000
vt 0.687500 0.500000
vt 0.687500 0.750000
vt 0.750000 0.250000
vt 0.718750 0.000000
vt 0.687500 0.250000
vt 0.750000 1.000000
vt 0.687500 1.000000
vt 0.625000 0.250000
vt 0.625000 0.500000
vt 0.625000 0.750000
vt 0.656250 0.000000
vt 0.625000 1.000000
vt 0.562500 0.500000
vt 0.562500 0.750000
vt 0.593750 0.000000
vt 0.562500 0.250000
vt 0.562500 1.000000
vt 0.500000 0.500000
vt 0.500000 0.750000
vt 0.531250 0.000000
vt 0.500000 0.250000
vt 0.500000 1.000000
vt 0.468750 0.000000
vt 0.437500 0.250000
vt 0.437500 0.750000
vt 0.437500 1.000000
vt 0.437500 0.500000
vt 0.375000 0.750000
vt 0.375000 1.000000
vt 0.375000 0.250000
vt 0.375000 0.500000
vt 0.406250 0.000000
vt 0.312500 0.750000
vt 0.312500 1.000000
vt 0.312500 0.250000
vt 0.312500 0.500000
vt 0.343750 0.000000
vt 0.250000 0.500000
vt 0.250000 0.750000
vt 0.281250 0.000000
vt 0.250000 0.250000
vt 0.250000 1.000000
vt 0.187500 0.500000
vt 0.187500 0.750000
vt 0.218750 0.000000
vt 0.187500 0.250000
vt 0.187500 1.000000
vt 0.125000 0.500000
vt 0.125000 0.750000
vt 0.156250 0.000000
vt 0.125000 0.250000
vt 0.125000 1.000000
vt 0.062500 0.750000
vt 0.062500 1.000000
vt 0.062500 0.250000
vt 0.062500 0.500000
vt 0.093750 0.000000
vt -0.000000 0.750000
vt -0.000000 1.000000
vt -0.000000 0.250000
vt -0.000000 0.500000
vt 0.031250 0.000000
vt 1.000000 0.500000
vt 1.000000 0.250000
vt 0.937500 0.250000
vt 0.937500 0.500000
vt 1.000000 0.750000
vt 0.937500 0.750000
vt 0.968750 0.000000
vt 1.000000 1.000000
vt 0.937500 1.000000
vt 0.875000 0.500000
vt 0.875000 0.750000
vt 0.906250 0.000000
vt 0.875000 0.250000
vt 0.875000 1.000000
vt 0.812500 0.500000
vt 0.812500 0.750000
vt 0.843750 0.000000
vt 0.812500 0.250000
vt 0.812500 1.000000
vt 0.781250 0.000000
vt 0.812500 1.000000
vt 0.875000 1.000000
vt 0.937500 1.000000
vt -0.000000 1.000000
vt 0.062500 1.000000
vt 0.125000 1.000000
vt 0.312500 1.000000
vt 0.375000 1.000000
vt 0.187500 1.000000
vt 0.250000 1.000000
vt 0.437500 1.000000
vt 1.000000 1.000000
vt 0.500000 1.000000
vt 0.562500 1.000000
vt 0.625000 1.000000
vt 0.750000 1.000000
vt 0.687500 1.000000
vn 0.2167 0.0000 -0.9762
vn 0.6103 0.0000 -0.7921
vn 0.6103 -0.3031 -0.7318
vn 0.2167 -0.3736 -0.9019
vn 0.8900 0.0000 -0.4559
vn 1.0000 0.0000 0.0000
vn 0.8900 -0.1744 -0.4212
vn -0.1011 0.0000 -0.9948
vn -0.1011 -0.3807 -0.9191
vn 0.8900 -0.3224 -0.3224
vn 0.6103 -0.5601 -0.5601
vn 0.2167 -0.6903 -0.6903
vn -0.1011 -0.7035 -0.7035
vn 0.6103 -0.7318 -0.3031
vn 0.2167 -0.9019 -0.3736
vn 0.8900 -0.4212 -0.1744
vn -0.1011 -0.9191 -0.3807
vn 0.6103 -0.7921 0.0000
vn 0.2167 -0.9762 0.0000
vn 0.8900 -0.4559 0.0000
vn -0.1011 -0.9948 0.0000
vn 0.8900 -0.4212 0.1744
vn 0.2167 -0.9019 0.3736
vn -0.1011 -0.9191 0.3807
vn 0.6103 -0.7318 0.3031
vn 0.2167 -0.6903 0.6903
vn -0.1011 -0.7035 0.7035
vn 0.8900 -0.3224 0.3224
vn 0.6103 -0.5601 0.5601
vn 0.2167 -0.3736 0.9019
vn -0.1011 -0.3807 0.9191
vn 0.8900 -0.1744 0.4212
vn 0.6103 -0.3031 0.7318
vn 0.6103 0.0000 0.7921
vn 0.2167 0.0000 0.9762
vn 0.8900 0.0000 0.4559
vn -0.1011 0.0000 0.9948
vn 0.6103 0.3031 0.7318
vn 0.2167 0.3736 0.9019
vn 0.8900 0.1744 0.4212
vn -0.1012 0.3807 0.9191
vn 0.6103 0.5601 0.5601
vn 0.2167 0.6903 0.6903
vn 0.8900 0.3224 0.3224
vn -0.1012 0.7035 0.7035
vn 0.2167 0.9019 0.3736
vn -0.1012 0.9191 0.3807
vn 0.8900 0.4212 0.1744
vn 0.6103 0.7318 0.3031
vn 0.2167 0.9762 0.0000
vn -0.1012 0.9948 0.0000
vn 0.8900 0.4559 0.0000
vn 0.6103 0.7921 0.0000
vn 0.8900 0.4212 -0.1744
vn 0.6103 0.7318 -0.3031
vn 0.2167 0.9019 -0.3736
vn -0.1012 0.9191 -0.3807
vn 0.6103 0.5601 -0.5601
vn 0.2167 0.6903 -0.6903
vn 0.8900 0.3224 -0.3224
vn -0.1012 0.7035 -0.7035
vn 0.6103 0.3031 -0.7318
vn 0.2167 0.3736 -0.9019
vn 0.8900 0.1744 -0.4212
vn -0.1012 0.3807 -0.9191
vn -0.2038 0.3746 -0.9045
vn -0.2038 0.6923 -0.6923
vn -0.2038 0.9045 -0.3746
vn -0.2038 0.9790 0.0000
vn -0.2038 0.9045 0.3746
vn -0.2038 0.6923 0.6923
vn -0.2038 -0.3746 0.9045
vn -0.2038 -0.6923 0.6923
vn -0.2038 0.3746 0.9045
vn -0.2038 0.0000 0.9790
vn -0.2038 -0.9045 0.3746
vn -0.2038 -0.9790 0.0000
vn -0.2038 -0.9045 -0.3746
vn -0.2038 -0.6923 -0.6923
vn -0.2038 0.0000 -0.9790
vn -0.2038 -0.3746 -0.9045
s 1
f 65/1/1 64/2/2 4/3/3 5/4/4
f 1/5/5 31/6/6 3/7/7
f 2/8/8 65/1/1 5/4/4 6/9/9
f 64/2/2 1/5/5 3/7/7 4/3/3
f 4/3/3 3/7/7 7/10/10 8/11/11
f 5/4/4 4/3/3 8/11/11 9/12/12
f 3/7/7 31/13/6 7/10/10
f 6/9/9 5/4/4 9/12/12 10/14/13
f 9/12/12 8/11/11 12/15/14 13/16/15
f 7/10/10 31/17/6 11/18/16
f 10/14/13 9/12/12 13/16/15 14/19/17
f 8/11/11 7/10/10 11/18/16 12/15/14
f 13/16/15 12/15/14 16/20/18 17/21/19
f 11/18/16 31/22/6 15/23/20
f 14/19/17 13/16/15 17/21/19 18/24/21
f 12/15/14 11/18/16 15/23/20 16/20/18
f 15/23/20 31/25/6 19/26/22
f 18/24/21 17/21/19 21/27/23 22/28/24
f 16/20/18 15/23/20 19/26/22 20/29/25
f 17/21/19 16/20/18 20/29/25 21/27/23
f 22/28/24 21/27/23 25/30/26 26/31/27
f 20/29/25 19/26/22 23/32/28 24/33/29
f 21/27/23 20/29/25 24/33/29 25/30/26
f 19/26/22 31/34/6 23/32/28
f 26/31/27 25/30/26 29/35/30 30/36/31
f 24/33/29 23/32/28 27/37/32 28/38/33
f 25/30/26 24/33/29 28/38/33 29/35/30
f 23/32/28 31/39/6 27/37/32
f 29/35/30 28/38/33 33/40/34 34/41/35
f 27/37/32 31/42/6 32/43/36
f 30/36/31 29/35/30 34/41/35 35/44/37
f 28/38/33 27/37/32 32/43/36 33/40/34
f 34/41/35 33/40/34 37/45/38 38/46/39
f 32/43/36 31/47/6 36/48/40
f 35/44/37 34/41/35 38/46/39 39/49/41
f 33/40/34 32/43/36 36/48/40 37/45/38
f 38/46/39 37/45/38 41/50/42 42/51/43
f 36/48/40 31/52/6 40/53/44
f 39/49/41 38/46/39 42/51/43 43/54/45
f 37/45/38 36/48/40 40/53/44 41/50/42
f 43/54/45 42/51/43 46/55/46 47/56/47
f 41/50/42 40/53/44 44/57/48 45/58/49
f 42/51/43 41/50/42 45/58/49 46/55/46
f 40/53/44 31/59/6 44/57/48
f 47/56/47 46/55/46 50/60/50 51/61/51
f 45/58/49 44/57/48 48/62/52 49/63/53
f 46/55/46 45/58/49 49/63/53 50/60/50
f 44/57/48 31/64/6 48/62/52
f 49/65/53 48/66/52 52/67/54 53/68/55
f 50/69/50 49/65/53 53/68/55 54/70/56
f 48/66/52 31/71/6 52/67/54
f 51/72/51 50/69/50 54/70/56 55/73/57
f 54/70/56 53/68/55 57/74/58 58/75/59
f 52/67/54 31/76/6 56/77/60
f 55/73/57 54/70/56 58/75/59 59/78/61
f 53/68/55 52/67/54 56/77/60 57/74/58
f 58/75/59 57/74/58 61/79/62 62/80/63
f 56/77/60 31/81/6 60/82/64
f 59/78/61 58/75/59 62/80/63 63/83/65
f 57/74/58 56/77/60 60/82/64 61/79/62
f 60/82/64 31/84/6 1/5/5
f 63/83/65 62/80/63 65/1/1 2/8/8
f 61/79/62 60/82/64 1/5/5 64/2/2
f 62/80/63 61/79/62 64/2/2 65/1/1
f 59/78/61 63/83/65 81/85/66 80/86/67
f 55/73/57 59/78/61 80/86/67 79/87/68
f 47/56/47 51/61/51 78/88/69 77/89/70
f 43/54/45 47/56/47 77/89/70 76/90/71
f 26/31/27 30/36/31 73/91/72 72/92/73
f 35/44/37 39/49/41 75/93/74 74/94/75
f 22/28/24 26/31/27 72/92/73 71/95/76
f 30/36/31 35/44/37 74/94/75 73/91/72
f 51/72/51 55/73/57 79/87/68 78/96/69
f 14/19/17 18/24/21 70/97/77 69/98/78
f 10/14/13 14/19/17 69/98/78 68/99/79
f 18/24/21 22/28/24 71/95/76 70/97/77
f 63/83/65 2/8/8 66/100/80 81/85/66
f 39/49/41 43/54/45 76/90/71 75/93/74
f 6/9/9 10/14/13 68/99/79 67/101/81
f 2/8/8 6/9/9 67/101/81 66/100/80
