# Blender v3.2.0 OBJ File: 'ice_circle.blend'
# www.blender.org
o Bord_Circle
v 0.000000 0.000000 -1.200000
v -0.234108 0.000000 -1.176942
v -0.459220 0.000000 -1.108655
v -0.666684 0.000000 -0.997764
v -0.848528 0.000000 -0.848528
v -0.997764 0.000000 -0.666684
v -1.108655 0.000000 -0.459220
v -1.176942 0.000000 -0.234108
v -1.200000 0.000000 0.000000
v -1.176942 0.000000 0.234108
v -1.108656 0.000000 0.459220
v -0.997764 0.000000 0.666684
v -0.848528 0.000000 0.848528
v -0.666684 0.000000 0.997764
v -0.459220 0.000000 1.108655
v -0.234108 0.000000 1.176942
v 0.000000 0.000000 1.200000
v 0.234108 0.000000 1.176942
v 0.459220 0.000000 1.108655
v 0.666684 0.000000 0.997763
v 0.848528 0.000000 0.848528
v 0.997763 0.000000 0.666685
v 1.108655 0.000000 0.459220
v 1.176942 0.000000 0.234108
v 1.200000 0.000000 -0.000000
v 1.176942 0.000000 -0.234109
v 1.108655 0.000000 -0.459220
v 0.997764 0.000000 -0.666684
v 0.848528 0.000000 -0.848528
v 0.666684 0.000000 -0.997764
v 0.459220 0.000000 -1.108656
v 0.234108 0.000000 -1.176942
v -0.000000 0.200000 -1.367151
v -0.266718 0.200000 -1.340881
v -0.523186 0.200000 -1.263083
v -0.759548 0.200000 -1.136744
v -0.966722 0.200000 -0.966722
v -1.136744 0.200000 -0.759548
v -1.263083 0.200000 -0.523186
v -1.340881 0.200000 -0.266718
v -1.367151 0.200000 0.000000
v -1.340881 0.200000 0.266718
v -1.263083 0.200000 0.523186
v -1.136744 0.200000 0.759548
v -0.966722 0.200000 0.966722
v -0.759548 0.200000 1.136744
v -0.523186 0.200000 1.263083
v -0.266718 0.200000 1.340881
v 0.000000 0.200000 1.367151
v 0.266718 0.200000 1.340881
v 0.523186 0.200000 1.263083
v 0.759548 0.200000 1.136744
v 0.966721 0.200000 0.966722
v 1.136744 0.200000 0.759549
v 1.263083 0.200000 0.523186
v 1.340881 0.200000 0.266718
v 1.367151 0.200000 -0.000000
v 1.340881 0.200000 -0.266718
v 1.263083 0.200000 -0.523186
v 1.136744 0.200000 -0.759548
v 0.966722 0.200000 -0.966721
v 0.759548 0.200000 -1.136744
v 0.523186 0.200000 -1.263083
v 0.266718 0.200000 -1.340881
vt 0.343750 0.000000
vt 0.312500 0.000000
vt 0.312500 1.000000
vt 0.343750 1.000000
vt 0.937500 0.000000
vt 0.906250 0.000000
vt 0.906250 1.000000
vt 0.937500 1.000000
vt 0.375000 0.000000
vt 0.375000 1.000000
vt 0.968750 0.000000
vt 0.968750 1.000000
vt 0.406250 0.000000
vt 0.406250 1.000000
vt 1.000000 0.000000
vt 1.000000 1.000000
vt 0.437500 0.000000
vt 0.437500 1.000000
vt 0.031250 0.000000
vt 0.000000 0.000000
vt 0.000000 1.000000
vt 0.031250 1.000000
vt 0.468750 0.000000
vt 0.468750 1.000000
vt 0.062500 0.000000
vt 0.062500 1.000000
vt 0.500000 0.000000
vt 0.500000 1.000000
vt 0.093750 0.000000
vt 0.093750 1.000000
vt 0.531250 0.000000
vt 0.531250 1.000000
vt 0.125000 0.000000
vt 0.125000 1.000000
vt 0.562500 0.000000
vt 0.562500 1.000000
vt 0.156250 0.000000
vt 0.156250 1.000000
vt 0.593750 0.000000
vt 0.593750 1.000000
vt 0.187500 0.000000
vt 0.187500 1.000000
vt 0.781250 0.000000
vt 0.750000 0.000000
vt 0.750000 1.000000
vt 0.781250 1.000000
vt 0.625000 0.000000
vt 0.625000 1.000000
vt 0.218750 0.000000
vt 0.218750 1.000000
vt 0.812500 0.000000
vt 0.812500 1.000000
vt 0.656250 0.000000
vt 0.656250 1.000000
vt 0.250000 0.000000
vt 0.250000 1.000000
vt 0.843750 0.000000
vt 0.843750 1.000000
vt 0.687500 0.000000
vt 0.687500 1.000000
vt 0.281250 0.000000
vt 0.281250 1.000000
vt 0.875000 0.000000
vt 0.875000 1.000000
vt 0.718750 0.000000
vt 0.718750 1.000000
vn -0.4263 0.6413 -0.6380
vn -0.2936 0.6413 -0.7089
vn 0.7089 0.6413 0.2936
vn 0.6380 0.6413 0.4263
vn -0.5426 0.6413 -0.5426
vn 0.7526 0.6413 0.1497
vn -0.6380 0.6413 -0.4263
vn 0.7673 0.6413 -0.0000
vn -0.7089 0.6413 -0.2936
vn 0.7526 0.6413 -0.1497
vn -0.7526 0.6413 -0.1497
vn 0.7089 0.6413 -0.2936
vn -0.7673 0.6413 0.0000
vn 0.6380 0.6413 -0.4263
vn -0.7526 0.6413 0.1497
vn 0.5426 0.6413 -0.5426
vn -0.7089 0.6413 0.2936
vn 0.4263 0.6413 -0.6380
vn -0.6380 0.6413 0.4263
vn 0.2936 0.6413 -0.7089
vn 0.1497 0.6413 0.7526
vn -0.0000 0.6413 0.7673
vn -0.5426 0.6413 0.5426
vn 0.1497 0.6413 -0.7526
vn 0.2936 0.6413 0.7089
vn -0.4263 0.6413 0.6380
vn -0.0000 0.6413 -0.7673
vn 0.4263 0.6413 0.6380
vn -0.2936 0.6413 0.7089
vn -0.1497 0.6413 -0.7526
vn 0.5426 0.6413 0.5426
vn -0.1497 0.6413 0.7526
s 1
f 20/1/1 19/2/2 51/3/2 52/4/1
f 7/5/3 6/6/4 38/7/4 39/8/3
f 21/9/5 20/1/1 52/4/1 53/10/5
f 8/11/6 7/5/3 39/8/3 40/12/6
f 22/13/7 21/9/5 53/10/5 54/14/7
f 9/15/8 8/11/6 40/12/6 41/16/8
f 23/17/9 22/13/7 54/14/7 55/18/9
f 10/19/10 9/20/8 41/21/8 42/22/10
f 24/23/11 23/17/9 55/18/9 56/24/11
f 11/25/12 10/19/10 42/22/10 43/26/12
f 25/27/13 24/23/11 56/24/11 57/28/13
f 12/29/14 11/25/12 43/26/12 44/30/14
f 26/31/15 25/27/13 57/28/13 58/32/15
f 13/33/16 12/29/14 44/30/14 45/34/16
f 27/35/17 26/31/15 58/32/15 59/36/17
f 14/37/18 13/33/16 45/34/16 46/38/18
f 28/39/19 27/35/17 59/36/17 60/40/19
f 15/41/20 14/37/18 46/38/18 47/42/20
f 2/43/21 1/44/22 33/45/22 34/46/21
f 29/47/23 28/39/19 60/40/19 61/48/23
f 16/49/24 15/41/20 47/42/20 48/50/24
f 3/51/25 2/43/21 34/46/21 35/52/25
f 30/53/26 29/47/23 61/48/23 62/54/26
f 17/55/27 16/49/24 48/50/24 49/56/27
f 4/57/28 3/51/25 35/52/25 36/58/28
f 31/59/29 30/53/26 62/54/26 63/60/29
f 18/61/30 17/55/27 49/56/27 50/62/30
f 5/63/31 4/57/28 36/58/28 37/64/31
f 32/65/32 31/59/29 63/60/29 64/66/32
f 19/2/2 18/61/30 50/62/30 51/3/2
f 6/6/4 5/63/31 37/64/31 38/7/4
f 1/44/22 32/65/32 64/66/32 33/45/22
